<svg enable-background="new 0 0 1299 971" viewBox="0 0 1299 971" xmlns="http://www.w3.org/2000/svg"><g fill="#fff" stroke="#000" stroke-miterlimit="10" stroke-width="8"><path d="m683.9 129.5h602.5v824.5h-602.5z"/><path d="m718 163h535v217h-535z"/><path d="m9.5 129h602.5v824.5h-602.5z"/><path d="m42 163.1h535v166.2h-535z"/><path d="m42 358.9h535v166.2h-535z"/><path d="m42 554.9h535v166.2h-535z"/><path d="m42 750.8h535v166.2h-535z"/></g><path d="m84.1 69.5h-11.2v-57.4h15l19.4 38.2v-38.2h11.2v57.4h-13.9l-20.5-39.8z"/><path d="m125.7 50.7c0-11.5 8.9-19.8 20.1-19.8s20.1 8.3 20.1 19.8-8.9 19.8-20.1 19.8-20.1-8.3-20.1-19.8zm10.6 0c0 5.8 3.9 10.3 9.4 10.3s9.3-4.4 9.3-10.3-3.9-10.2-9.3-10.2c-5.5 0-9.4 4.3-9.4 10.2z"/><path d="m194.4 31c8.1 0 13.9 5.2 13.9 13.9v24.6h-10.7v-21.9c0-4.8-3-6.7-6.4-6.7-3.1 0-5.9 1.7-8 4.3v24.4h-10.7v-37.6h10.4v1.5c0 1.3-.2 3-.2 3 3.1-3.6 7.4-5.5 11.7-5.5z"/><path d="m214.2 43h17.2v9h-17.2z"/><path d="m268.5 27.4c-3.5-3.4-8.1-5.9-12.1-5.9-3.8 0-7.2 2-7.2 5.4 0 2.6 1.6 4.7 6.2 6.8l4.8 2.2c9.1 4.3 14.6 9 14.6 17.6s-7.3 17-19.9 17c-8.7 0-15.2-3.4-20.6-8.6l6.3-8.5c4.3 4.3 9.7 6.8 14 6.8 4.9 0 8-2.7 8-6.2 0-3.9-3.5-6.2-9-8.7l-4-1.9c-7.7-3.6-12.5-8.9-12.5-16.1 0-10.1 9-16.2 19.2-16.2 6.6 0 13.4 3.3 18.9 8z"/><path d="m318.6 53.9h-28c.6 4.2 3.9 7.5 8.6 7.5 3.1 0 6.1-1.3 7.5-3.9l11.1 1.1c-3.4 8-10.4 11.8-18.8 11.8-11.2 0-19.7-8.3-19.7-19.8s8.3-19.8 19.5-19.8c10.3 0 19.7 6.7 19.7 22.5v.6zm-28.3-7.2h16.8c-.6-3.8-3.8-6.9-8.3-6.9-4.4 0-7.6 2.9-8.5 6.9z"/><path d="m374.2 47.5c0-4.6-3-6.6-6.2-6.6-3 0-5.7 1.7-7.8 4.3v24.4h-10.7v-22.1c0-4.5-2.9-6.6-6.2-6.6-3 0-5.7 1.7-7.8 4.3v24.4h-10.7v-37.6h10.4v1.5c0 1.3-.2 3-.2 3 2.8-3.4 7-5.4 11.2-5.4 5.6 0 9.9 2.4 12.1 6.8 3.1-4.3 7.4-6.8 12.6-6.8 8.1 0 13.9 5.2 13.9 13.9v24.6h-10.7v-22.1z"/><path d="m414.5 44.5c0-2.7-2.1-4.4-6.2-4.4-3.8 0-8.5 1.9-11.3 3.5l-4.2-8s7-4.6 16.1-4.6c8.5 0 16.3 3.9 16.3 13.9v24.7h-10.7v-3.6c-2 3-6.2 4.5-10.5 4.5-8 0-13.1-5.7-13.1-11.8 0-7.1 5.2-11.6 13.6-11.6h7.4c1.8 0 2.6-.8 2.6-2.2zm0 11.6v-2.7c-.7.7-1.8.8-3.3.8h-4c-3.4 0-5.3 1.5-5.3 4.1 0 2.5 2.1 4.4 5.3 4.4 3.8 0 7.3-2 7.3-6.6z"/><path d="m455.7 31c8.1 0 13.9 5.2 13.9 13.9v24.6h-10.7v-21.9c0-4.8-3-6.7-6.4-6.7-3.1 0-5.9 1.7-8 4.3v24.4h-10.7v-37.6h10.4v1.5c0 1.3-.2 3-.2 3 3-3.6 7.3-5.5 11.7-5.5z"/><path d="m491.8 17.7v14.3h8.1v9h-8.1v17c0 2.4 1.9 2.7 3.5 2.7 2.7 0 4.9-.2 4.9-.2v9.1s-5.2.5-8.3.5c-5.3 0-10.8-.9-10.8-8.4v-20.7h-5.9v-9h5.9v-14.3z"/><path d="m520.2 69.5h-10.7v-28.5h-5.2v-9h15.9zm-5.8-57.4c3.9 0 6.9 3.1 6.9 6.9 0 3.9-3 6.8-6.9 6.8-3.8 0-6.8-3-6.8-6.8s3-6.9 6.8-6.9z"/><path d="m537.7 50.7c0 5.9 3.9 10.3 9.4 10.3 3.9 0 6.9-2.2 8.3-5.7l10 3.1c-2.5 7.5-9.8 12.1-18.4 12.1-11.2 0-20-8.3-20-19.8s8.9-19.8 20-19.8c8.5 0 15.9 4.8 18.4 12.2l-10 3c-1.4-3.4-4.3-5.7-8.3-5.7-5.6.1-9.4 4.4-9.4 10.3z"/><path d="m857.4 27.4c-3.5-3.4-8.1-5.9-12.1-5.9-3.8 0-7.2 2-7.2 5.4 0 2.6 1.6 4.7 6.2 6.8l4.8 2.2c9.1 4.3 14.6 9 14.6 17.6s-7.3 17-19.9 17c-8.7 0-15.2-3.4-20.6-8.6l6.3-8.5c4.3 4.3 9.7 6.8 14 6.8 4.9 0 8-2.7 8-6.2 0-3.9-3.5-6.2-9-8.7l-4-1.9c-7.7-3.6-12.5-8.9-12.5-16.1 0-10.1 9-16.2 19.2-16.2 6.6 0 13.4 3.3 18.9 8z"/><path d="m907.4 53.9h-28c.6 4.2 3.9 7.5 8.6 7.5 3.1 0 6.1-1.3 7.5-3.9l11.1 1.1c-3.4 8-10.4 11.8-18.8 11.8-11.2 0-19.7-8.3-19.7-19.8s8.3-19.8 19.5-19.8c10.3 0 19.7 6.7 19.7 22.5v.6zm-28.2-7.2h16.8c-.6-3.8-3.8-6.9-8.3-6.9s-7.7 2.9-8.5 6.9z"/><path d="m963.1 47.5c0-4.6-3-6.6-6.2-6.6-3 0-5.7 1.7-7.8 4.3v24.4h-10.7v-22.1c0-4.5-2.9-6.6-6.2-6.6-3 0-5.7 1.7-7.8 4.3v24.4h-10.7v-37.6h10.4v1.5c0 1.3-.2 3-.2 3 2.8-3.4 7-5.4 11.2-5.4 5.6 0 9.9 2.4 12.1 6.8 3.1-4.3 7.4-6.8 12.6-6.8 8.1 0 13.9 5.2 13.9 13.9v24.6h-10.7v-22.1z"/><path d="m1003.4 44.5c0-2.7-2.1-4.4-6.2-4.4-3.8 0-8.5 1.9-11.3 3.5l-4.2-8s7-4.6 16.1-4.6c8.5 0 16.3 3.9 16.3 13.9v24.7h-10.7v-3.6c-2 3-6.2 4.5-10.5 4.5-8 0-13.1-5.7-13.1-11.8 0-7.1 5.2-11.6 13.6-11.6h7.4c1.8 0 2.6-.8 2.6-2.2zm0 11.6v-2.7c-.7.7-1.8.8-3.3.8h-4c-3.4 0-5.3 1.5-5.3 4.1 0 2.5 2.1 4.4 5.3 4.4 3.8 0 7.3-2 7.3-6.6z"/><path d="m1044.5 31c8.1 0 13.9 5.2 13.9 13.9v24.6h-10.7v-21.9c0-4.8-3-6.7-6.4-6.7-3.1 0-5.9 1.7-8 4.3v24.4h-10.7v-37.6h10.4v1.5c0 1.3-.2 3-.2 3 3.1-3.6 7.4-5.5 11.7-5.5z"/><path d="m1080.7 17.7v14.3h8.1v9h-8.1v17c0 2.4 1.9 2.7 3.5 2.7 2.7 0 4.9-.2 4.9-.2v9.1s-5.2.5-8.3.5c-5.3 0-10.8-.9-10.8-8.4v-20.7h-5.9v-9h5.9v-14.3z"/><path d="m1109.1 69.5h-10.7v-28.5h-5.2v-9h15.9zm-5.9-57.4c3.9 0 6.9 3.1 6.9 6.9 0 3.9-3 6.8-6.9 6.8-3.8 0-6.8-3-6.8-6.8s3.1-6.9 6.8-6.9z"/><path d="m1126.5 50.7c0 5.9 3.9 10.3 9.4 10.3 3.9 0 6.9-2.2 8.3-5.7l10 3.1c-2.5 7.5-9.8 12.1-18.4 12.1-11.2 0-20-8.3-20-19.8s8.9-19.8 20-19.8c8.5 0 15.9 4.8 18.4 12.2l-10 3c-1.4-3.4-4.3-5.7-8.3-5.7-5.5.1-9.4 4.4-9.4 10.3z"/><g fill="#e6e6e6"><path d="m69 187h480v118h-480z"/><path d="m69 777h480v116h-480z"/><path d="m69 380h340v33.1h-340z"/><path d="m69 470.9h432v33.1h-432z"/><path d="m69 424.9h480v33.1h-480z"/><path d="m69 579h480v33.1h-480z"/><path d="m69 669.9h463v33.1h-463z"/><path d="m69 623.9h361v33.1h-361z"/></g><path d="m248 249.5v-1.5l22-12.7v7.1l-11.7 6.3 11.7 6.5v7z"/><path d="m294.2 263c-1.2 2.1-4.2 3.8-7.7 3.8-6.8 0-12-5.5-12-13 0-7.6 5.1-13 11.9-13 3.8 0 6.6 1.7 7.9 3.8 0-.8-.1-2.9-.1-4.7v-11.6h7v37.8h-7zm-12.4-9.2c0 3.8 2.6 6.8 6.3 6.8s6.3-3 6.3-6.8-2.6-6.8-6.3-6.8-6.3 3-6.3 6.8z"/><path d="m315.8 266.2h-7v-18.8h-3.5v-5.9h10.5zm-3.8-37.8c2.5 0 4.5 2.1 4.5 4.5 0 2.5-2 4.5-4.5 4.5s-4.5-1.9-4.5-4.5c0-2.5 2-4.5 4.5-4.5z"/><path d="m332.4 258.6 5.6-17.2h7.4l-8.8 24.7h-8.7l-8.4-24.7h7.6z"/><path d="m348.9 255.1 11.7-6.3-11.7-6.5v-7l22 12.7v1.6l-22 12.7z"/><path d="m248 440.5v-1.5l22-12.7v7.1l-11.7 6.3 11.7 6.5v7z"/><path d="m294.2 454c-1.2 2.1-4.2 3.8-7.7 3.8-6.8 0-12-5.5-12-13 0-7.6 5.1-13 11.9-13 3.8 0 6.6 1.7 7.9 3.8 0-.8-.1-2.9-.1-4.7v-11.6h7v37.8h-7zm-12.4-9.2c0 3.8 2.6 6.8 6.3 6.8s6.3-3 6.3-6.8-2.6-6.8-6.3-6.8-6.3 3-6.3 6.8z"/><path d="m315.8 457.2h-7v-18.8h-3.5v-5.9h10.5zm-3.8-37.8c2.5 0 4.5 2.1 4.5 4.5 0 2.5-2 4.5-4.5 4.5s-4.5-1.9-4.5-4.5c0-2.5 2-4.5 4.5-4.5z"/><path d="m332.4 449.6 5.6-17.2h7.4l-8.8 24.7h-8.7l-8.4-24.7h7.6z"/><path d="m348.9 446.1 11.7-6.3-11.7-6.5v-7l22 12.7v1.6l-22 12.7z"/><path d="m248 640.5v-1.5l22-12.7v7.1l-11.7 6.3 11.7 6.5v7z"/><path d="m294.2 654c-1.2 2.1-4.2 3.8-7.7 3.8-6.8 0-12-5.5-12-13 0-7.6 5.1-13 11.9-13 3.8 0 6.6 1.7 7.9 3.8 0-.8-.1-2.9-.1-4.7v-11.6h7v37.8h-7zm-12.4-9.2c0 3.8 2.6 6.8 6.3 6.8s6.3-3 6.3-6.8-2.6-6.8-6.3-6.8-6.3 3-6.3 6.8z"/><path d="m315.8 657.2h-7v-18.8h-3.5v-5.9h10.5zm-3.8-37.8c2.5 0 4.5 2.1 4.5 4.5 0 2.5-2 4.5-4.5 4.5s-4.5-1.9-4.5-4.5c0-2.5 2-4.5 4.5-4.5z"/><path d="m332.4 649.6 5.6-17.2h7.4l-8.8 24.7h-8.7l-8.4-24.7h7.6z"/><path d="m348.9 646.1 11.7-6.3-11.7-6.5v-7l22 12.7v1.6l-22 12.7z"/><path d="m248 833.5v-1.5l22-12.7v7.1l-11.7 6.3 11.7 6.5v7z"/><path d="m294.2 847c-1.2 2.1-4.2 3.8-7.7 3.8-6.8 0-12-5.5-12-13 0-7.6 5.1-13 11.9-13 3.8 0 6.6 1.7 7.9 3.8 0-.8-.1-2.9-.1-4.7v-11.6h7v37.8h-7zm-12.4-9.2c0 3.8 2.6 6.8 6.3 6.8s6.3-3 6.3-6.8-2.6-6.8-6.3-6.8-6.3 3-6.3 6.8z"/><path d="m315.8 850.2h-7v-18.8h-3.5v-5.9h10.5zm-3.8-37.8c2.5 0 4.5 2.1 4.5 4.5 0 2.5-2 4.5-4.5 4.5s-4.5-1.9-4.5-4.5c0-2.5 2-4.5 4.5-4.5z"/><path d="m332.4 842.6 5.6-17.2h7.4l-8.8 24.7h-8.7l-8.4-24.7h7.6z"/><path d="m348.9 839.1 11.7-6.3-11.7-6.5v-7l22 12.7v1.6l-22 12.7z"/><path d="m718 413h535v385h-535z" fill="#fff" stroke="#000" stroke-miterlimit="10" stroke-width="8"/><path d="m748 245.1h478v107.9h-478z" fill="#fff" stroke="#000" stroke-miterlimit="10" stroke-width="8"/><g fill="#71eec3"><path d="m773 269h94v60h-94z"/><path d="m1111 269h89v60h-89z"/><path d="m887 269h204v60h-204z"/></g><path d="m922.8 298.5v-1.5l22-12.7v7.1l-11.7 6.3 11.7 6.5v7z"/><path d="m965.1 289.8c5.3 0 9.2 3.4 9.2 9.2v16.2h-7v-14.4c0-3.1-2-4.4-4.2-4.4-2.1 0-3.9 1.1-5.2 2.8v16h-7v-24.7h6.9v1c0 .9-.1 1.9-.1 1.9 1.8-2.4 4.6-3.6 7.4-3.6z"/><path d="m993.8 298.7c0-1.8-1.4-2.9-4.1-2.9-2.5 0-5.6 1.2-7.5 2.3l-2.8-5.3s4.6-3 10.6-3c5.6 0 10.7 2.6 10.7 9.1v16.3h-7v-2.3c-1.3 1.9-4.1 3-6.9 3-5.2 0-8.6-3.7-8.6-7.8 0-4.7 3.5-7.6 9-7.6h4.9c1.2 0 1.7-.5 1.7-1.5zm0 7.6v-1.8c-.4.4-1.2.5-2.2.5h-2.6c-2.2 0-3.5 1-3.5 2.7s1.3 2.9 3.5 2.9c2.5.1 4.8-1.2 4.8-4.3z"/><path d="m1016.7 307.6 5.6-17.2h7.4l-8.8 24.7h-8.7l-8.4-24.7h7.6z"/><path d="m1033.2 304.1 11.7-6.3-11.7-6.5v-7l22 12.7v1.6l-22 12.7z"/><path d="m879 202.5v-1.5l22-12.7v7.1l-11.7 6.3 11.7 6.5v7z"/><path d="m921.3 193.8c5.3 0 9.2 3.4 9.2 9.2v16.2h-7v-14.4c0-3.1-2-4.4-4.2-4.4-2.1 0-3.9 1.1-5.2 2.8v16h-7v-37.8h6.9v14c0 .9-.1 1.9-.1 1.9 1.8-2.3 4.6-3.5 7.4-3.5z"/><path d="m960.6 208.8h-18.4c.4 2.8 2.5 5 5.7 5 2.1 0 4-.9 5-2.5l7.3.8c-2.2 5.3-6.9 7.8-12.4 7.8-7.4 0-13-5.5-13-13 0-7.6 5.5-13 12.9-13 6.8 0 13 4.4 13 14.8v.1zm-18.6-4.7h11c-.4-2.5-2.5-4.5-5.5-4.5-2.9 0-5 1.9-5.5 4.5z"/><path d="m978.4 202.7c0-1.8-1.4-2.9-4.1-2.9-2.5 0-5.6 1.2-7.5 2.3l-2.8-5.3s4.6-3 10.6-3c5.6 0 10.7 2.6 10.7 9.1v16.3h-7v-2.3c-1.3 1.9-4.1 3-6.9 3-5.2 0-8.6-3.7-8.6-7.8 0-4.7 3.5-7.6 9-7.6h4.9c1.2 0 1.7-.5 1.7-1.5zm0 7.6v-1.8c-.4.4-1.2.5-2.2.5h-2.6c-2.2 0-3.5 1-3.5 2.7s1.3 2.9 3.5 2.9c2.6.1 4.8-1.2 4.8-4.3z"/><path d="m1009.4 216c-1.2 2.1-4.2 3.8-7.7 3.8-6.8 0-12-5.5-12-13 0-7.6 5.1-13 11.9-13 3.8 0 6.6 1.7 7.9 3.8 0-.8-.1-2.9-.1-4.7v-11.6h7v37.8h-7zm-12.5-9.2c0 3.8 2.6 6.8 6.3 6.8s6.3-3 6.3-6.8-2.6-6.8-6.3-6.8-6.3 3-6.3 6.8z"/><path d="m1046.7 208.8h-18.4c.4 2.8 2.5 5 5.7 5 2.1 0 4-.9 5-2.5l7.3.8c-2.2 5.3-6.9 7.8-12.4 7.8-7.4 0-13-5.5-13-13 0-7.6 5.5-13 12.9-13 6.8 0 13 4.4 13 14.8v.1zm-18.5-4.7h11.1c-.4-2.5-2.5-4.5-5.5-4.5s-5.1 1.9-5.6 4.5z"/><path d="m1066.1 201.3h-3c-3.6 0-5.2 1.7-5.2 6v11.8h-7v-24.7h6.8v3.9c1-2.6 3.3-4.3 6.4-4.3.6 0 1.3.1 1.9.2v7.1z"/><path d="m1070 208.1 11.7-6.3-11.7-6.5v-7l22 12.7v1.6l-22 12.7z"/><path d="m886.2 458.5v-1.5l22-12.7v7.1l-11.7 6.3 11.7 6.5v7z"/><path d="m928 458.7c0-1.8-1.4-2.9-4.1-2.9-2.5 0-5.6 1.2-7.5 2.3l-2.8-5.3s4.6-3 10.6-3c5.6 0 10.7 2.6 10.7 9.1v16.3h-7v-2.3c-1.3 1.9-4.1 3-6.9 3-5.2 0-8.6-3.7-8.6-7.8 0-4.7 3.5-7.6 9-7.6h4.9c1.2 0 1.7-.5 1.7-1.5zm0 7.6v-1.8c-.4.4-1.2.5-2.2.5h-2.6c-2.2 0-3.5 1-3.5 2.7s1.3 2.9 3.5 2.9c2.5.1 4.8-1.2 4.8-4.3z"/><path d="m956 457.3h-3c-3.6 0-5.2 1.7-5.2 6v11.8h-7v-24.7h6.8v3.9c1-2.6 3.3-4.3 6.4-4.3.6 0 1.3.1 1.9.2v7.1z"/><path d="m968.8 441v9.4h5.3v5.9h-5.3v11.2c0 1.6 1.2 1.8 2.3 1.8 1.8 0 3.2-.2 3.2-.2v6s-3.4.3-5.5.3c-3.5 0-7.1-.6-7.1-5.6v-13.6h-3.9v-5.9h3.9v-9.3z"/><path d="m987.4 475.2h-7v-18.8h-3.4v-5.9h10.5v24.7zm-3.8-37.8c2.5 0 4.5 2.1 4.5 4.5 0 2.5-2 4.5-4.5 4.5s-4.5-1.9-4.5-4.5c0-2.5 2-4.5 4.5-4.5z"/><path d="m998.9 462.8c0 3.9 2.5 6.8 6.2 6.8 2.6 0 4.5-1.5 5.5-3.8l6.6 2.1c-1.6 4.9-6.5 8-12.1 8-7.3 0-13.2-5.5-13.2-13 0-7.6 5.8-13 13.2-13 5.6 0 10.5 3.1 12.1 8l-6.6 2c-.9-2.3-2.9-3.8-5.5-3.8-3.6-.1-6.2 2.8-6.2 6.7z"/><path d="m1028.3 475.2h-7v-37.8h7z"/><path d="m1058.6 464.8h-18.4c.4 2.8 2.5 5 5.7 5 2.1 0 4-.9 5-2.5l7.3.8c-2.2 5.3-6.9 7.8-12.4 7.8-7.4 0-13-5.5-13-13 0-7.6 5.5-13 12.9-13 6.8 0 13 4.4 13 14.8v.1zm-18.6-4.7h11.1c-.4-2.5-2.5-4.5-5.5-4.5-2.9 0-5 1.9-5.6 4.5z"/><path d="m1062.8 464.1 11.7-6.3-11.7-6.5v-7l22 12.7v1.6l-22 12.7z"/><path d="m751 646.8h470v123.2h-470z" fill="#fff" stroke="#000" stroke-miterlimit="10" stroke-width="8"/><path d="m773 671h427v74h-427z" fill="#fd92f3"/><path d="m891.7 707.5v-1.5l22-12.7v7.1l-11.7 6.3 11.7 6.5v7z"/><path d="m944.2 724.2h-7v-18.8h-8.8v18.8h-7v-18.8h-3.9v-5.9h3.9v-7c0-4.9 3.2-6.5 7-6.5 1.9 0 5.1.3 5.1.3v6.4s-2.2-.3-2.9-.3c-1.3 0-2.2.3-2.2 2.1v5h15.8zm-3.8-37.8c2.5 0 4.5 2.1 4.5 4.5 0 2.5-2 4.5-4.5 4.5s-4.5-1.9-4.5-4.5c0-2.5 2-4.5 4.5-4.5z"/><path d="m975.2 699.4v26.6c0 3.9-1.9 7.6-7.9 7.6h-10.7v-5.9h9c1.2 0 2.6-.3 2.6-2.2v-4.8c-1.2 2-4.2 3.7-7.7 3.7-6.7 0-11.9-5.1-11.9-12.8 0-7.8 5.1-12.9 11.8-12.9 3.7 0 6.6 1.7 7.8 3.8 0-.3-.1-.8-.1-2.1v-1.1h7.1zm-13.1 19c3.7 0 6.3-2.8 6.3-6.8 0-4.1-2.5-6.8-6.3-6.8-3.7 0-6.2 2.8-6.2 6.8s2.5 6.8 6.2 6.8z"/><path d="m980.9 715.1v-15.7h7v14.4c0 3.4 2.3 4.8 4.8 4.8s4.8-1.4 4.8-4.8v-14.4h7v15.7c0 5.2-4.1 9.7-11.7 9.7-7.7 0-11.9-4.5-11.9-9.7z"/><path d="m1025.2 706.3h-3c-3.6 0-5.2 1.7-5.2 6v11.8h-7v-24.7h6.8v3.9c1-2.6 3.3-4.3 6.4-4.3.6 0 1.3.1 1.9.2v7.1z"/><path d="m1053.2 713.8h-18.4c.4 2.8 2.5 5 5.7 5 2.1 0 4-.9 5-2.5l7.3.8c-2.2 5.3-6.9 7.8-12.4 7.8-7.4 0-13-5.5-13-13 0-7.6 5.5-13 12.9-13 6.8 0 13 4.4 13 14.8v.1zm-18.6-4.7h11.1c-.4-2.5-2.5-4.5-5.5-4.5s-5.1 1.9-5.6 4.5z"/><path d="m1057.3 713.1 11.7-6.3-11.7-6.5v-7l22 12.7v1.6l-22 12.7z"/><path d="m718 827h535v98h-535z" fill="#fff" stroke="#000" stroke-miterlimit="10" stroke-width="8"/><path d="m739 846h123v63h-123z" fill="#f94d45"/><path d="m1107 846h123v63h-123z" fill="#f94d45"/><path d="m882 846h209v63h-209z" fill="#f94d45"/><path d="m889.2 876.5v-1.5l22-12.7v7.1l-11.7 6.3 11.7 6.5v7z"/><path d="m918.9 861.4c0-4.9 3.2-6.5 7-6.5 1.9 0 5.1.3 5.1.3v6.4s-2.2-.3-2.9-.3c-1.4 0-2.2.3-2.2 2.1v5h4.8v5.9h-4.7v18.8h-7v-18.8h-3.9v-5.9h3.9v-7z"/><path d="m932.9 880.8c0-7.6 5.9-13 13.2-13s13.2 5.5 13.2 13c0 7.6-5.9 13-13.2 13s-13.2-5.4-13.2-13zm7 0c0 3.8 2.5 6.8 6.2 6.8 3.6 0 6.2-2.9 6.2-6.8s-2.5-6.8-6.2-6.8-6.2 2.9-6.2 6.8z"/><path d="m962.3 880.8c0-7.6 5.9-13 13.2-13s13.2 5.5 13.2 13c0 7.6-5.9 13-13.2 13s-13.2-5.4-13.2-13zm7 0c0 3.8 2.5 6.8 6.2 6.8 3.6 0 6.2-2.9 6.2-6.8s-2.5-6.8-6.2-6.8-6.2 2.9-6.2 6.8z"/><path d="m1002.1 859v9.4h5.3v5.9h-5.3v11.2c0 1.6 1.2 1.8 2.3 1.8 1.8 0 3.2-.2 3.2-.2v6s-3.4.3-5.5.3c-3.5 0-7.1-.6-7.1-5.6v-13.6h-3.9v-5.9h3.9v-9.3z"/><path d="m1036.5 882.8h-18.4c.4 2.8 2.5 5 5.7 5 2.1 0 4-.9 5-2.5l7.3.8c-2.2 5.3-6.9 7.8-12.4 7.8-7.4 0-13-5.5-13-13 0-7.6 5.5-13 12.9-13 6.8 0 13 4.4 13 14.8v.1zm-18.6-4.7h11.1c-.4-2.5-2.5-4.5-5.5-4.5-2.9 0-5 1.9-5.6 4.5z"/><path d="m1055.8 875.3h-3c-3.6 0-5.2 1.7-5.2 6v11.8h-7v-24.7h6.8v3.9c1-2.6 3.3-4.3 6.4-4.3.6 0 1.3.1 1.9.2v7.1z"/><path d="m1059.8 882.1 11.7-6.3-11.7-6.5v-7l22 12.7v1.6l-22 12.7z"/><path d="m751 500h470v33h-470z" fill="#fec64e"/><path d="m751 548h391v33h-391z" fill="#fec64e"/><path d="m751 596h449v33h-449z" fill="#fec64e"/></svg>